<svg version="1.1" viewBox="0.0 0.0 960.0 720.0" fill="none" stroke="none" stroke-linecap="square" stroke-miterlimit="10" xmlns:xlink="http://www.w3.org/1999/xlink" xmlns="http://www.w3.org/2000/svg"><clipPath id="p.0"><path d="m0 0l960.0 0l0 720.0l-960.0 0l0 -720.0z" clip-rule="nonzero"/></clipPath><g clip-path="url(#p.0)"><path fill="#000000" fill-opacity="0.0" d="m0 0l960.0 0l0 720.0l-960.0 0z" fill-rule="evenodd"/><path fill="#ffffff" d="m641.92944 109.12212c8.291992 27.898003 20.973877 63.532417 38.045654 106.90325l55.97101 142.77211l-181.81433 0l58.897583 -151.21184c12.437988 -32.586746 22.07135 -65.40791 28.900085 -98.463524zm-36.582397 -54.154934l-205.95868 515.52686l75.35965 0l58.897614 -156.13498l224.24994 0l62.555786 156.13498l80.847046 0l-219.4942 -515.52686z" fill-rule="evenodd"/><path stroke="#000000" stroke-width="1.0" stroke-linejoin="round" stroke-linecap="butt" d="m641.92944 109.12212c8.291992 27.898003 20.973877 63.532417 38.045654 106.90325l55.97101 142.77211l-181.81433 0l58.897583 -151.21184c12.437988 -32.586746 22.07135 -65.40791 28.900085 -98.463524zm-36.582397 -54.154934l-205.95868 515.52686l75.35965 0l58.897614 -156.13498l224.24994 0l62.555786 156.13498l80.847046 0l-219.4942 -515.52686z" fill-rule="evenodd"/><path fill="#ffffff" d="m298.4111 49.241467c-41.358154 0 -78.94377 5.796776 -112.75687 17.390324c-33.81308 11.593552 -59.5222 28.597412 -77.127365 51.011612c-17.605164 22.336914 -26.407745 46.37419 -26.407745 72.11188c0 23.41896 7.1724854 44.596527 21.517426 63.53264c14.438095 18.85884 36.32811 34.66472 65.670044 47.417618c22.635208 9.970459 62.176956 20.59787 118.62526 31.882263c56.448273 11.207092 92.91611 19.477173 109.4035 24.81018c25.709106 8.115509 44.15262 18.163208 55.330505 30.14325c11.177856 11.902679 16.766815 25.853607 16.766815 41.85269c0 15.767242 -5.821808 30.336456 -17.465454 43.707703c-11.550476 13.293915 -29.20221 23.766754 -52.9552 31.418488c-23.75299 7.651764 -51.138794 11.477631 -82.15741 11.477631c-34.930878 0 -66.36867 -5.0238953 -94.31337 -15.071625c-27.944702 -10.1250305 -48.57721 -23.341675 -61.897507 -39.649933c-13.227158 -16.38556 -21.65715 -37.331207 -25.289963 -62.837036l-76.70819 5.564911c1.1177902 34.085022 12.342251 64.65335 33.673367 91.704956c21.42427 26.974335 50.905937 47.18576 88.44497 60.634247c37.632202 13.448547 84.253265 20.17279 139.86322 20.17279c43.8732 0 83.32178 -6.6469727 118.345825 -19.940918c35.117157 -13.371216 62.03723 -32.036804 80.76019 -55.996826c18.7229 -24.037292 28.084412 -49.62039 28.084412 -76.74927c0 -27.360779 -8.523132 -51.514038 -25.569397 -72.45969c-17.046295 -21.02298 -43.45401 -38.374664 -79.223236 -52.055054c-24.59134 -9.274841 -69.954895 -20.095459 -136.0907 -32.461914c-66.04263 -12.443741 -106.88847 -24.578339 -122.537506 -36.403748c-15.928482 -11.825424 -23.892715 -26.897034 -23.892715 -45.214844c0 -21.100266 11.224457 -39.108902 33.673355 -54.02594c22.542068 -14.994324 58.40442 -22.491486 107.5871 -22.491486c47.226562 0 82.90262 8.231422 107.0282 24.69426c24.21875 16.462845 38.42398 40.809296 42.61566 73.03935l77.9657 -4.869278c-1.3972168 -29.911362 -11.457275 -56.69246 -30.180237 -80.3433c-18.722961 -23.65084 -45.503296 -41.543556 -80.341034 -53.67813c-34.744568 -12.211876 -74.891785 -18.317806 -120.44165 -18.317806z" fill-rule="evenodd"/><path stroke="#000000" stroke-width="1.0" stroke-linejoin="round" stroke-linecap="butt" d="m298.4111 49.241467c-41.358154 0 -78.94377 5.796776 -112.75687 17.390324c-33.81308 11.593552 -59.5222 28.597412 -77.127365 51.011612c-17.605164 22.336914 -26.407745 46.37419 -26.407745 72.11188c0 23.41896 7.1724854 44.596527 21.517426 63.53264c14.438095 18.85884 36.32811 34.66472 65.670044 47.417618c22.635208 9.970459 62.176956 20.59787 118.62526 31.882263c56.448273 11.207092 92.91611 19.477173 109.4035 24.81018c25.709106 8.115509 44.15262 18.163208 55.330505 30.14325c11.177856 11.902679 16.766815 25.853607 16.766815 41.85269c0 15.767242 -5.821808 30.336456 -17.465454 43.707703c-11.550476 13.293915 -29.20221 23.766754 -52.9552 31.418488c-23.75299 7.651764 -51.138794 11.477631 -82.15741 11.477631c-34.930878 0 -66.36867 -5.0238953 -94.31337 -15.071625c-27.944702 -10.1250305 -48.57721 -23.341675 -61.897507 -39.649933c-13.227158 -16.38556 -21.65715 -37.331207 -25.289963 -62.837036l-76.70819 5.564911c1.1177902 34.085022 12.342251 64.65335 33.673367 91.704956c21.42427 26.974335 50.905937 47.18576 88.44497 60.634247c37.632202 13.448547 84.253265 20.17279 139.86322 20.17279c43.8732 0 83.32178 -6.6469727 118.345825 -19.940918c35.117157 -13.371216 62.03723 -32.036804 80.76019 -55.996826c18.7229 -24.037292 28.084412 -49.62039 28.084412 -76.74927c0 -27.360779 -8.523132 -51.514038 -25.569397 -72.45969c-17.046295 -21.02298 -43.45401 -38.374664 -79.223236 -52.055054c-24.59134 -9.274841 -69.954895 -20.095459 -136.0907 -32.461914c-66.04263 -12.443741 -106.88847 -24.578339 -122.537506 -36.403748c-15.928482 -11.825424 -23.892715 -26.897034 -23.892715 -45.214844c0 -21.100266 11.224457 -39.108902 33.673355 -54.02594c22.542068 -14.994324 58.40442 -22.491486 107.5871 -22.491486c47.226562 0 82.90262 8.231422 107.0282 24.69426c24.21875 16.462845 38.42398 40.809296 42.61566 73.03935l77.9657 -4.869278c-1.3972168 -29.911362 -11.457275 -56.69246 -30.180237 -80.3433c-18.722961 -23.65084 -45.503296 -41.543556 -80.341034 -53.67813c-34.744568 -12.211876 -74.891785 -18.317806 -120.44165 -18.317806z" fill-rule="evenodd"/></g></svg>